<?xml version="1.0" encoding="UTF-8" standalone="no"?>
<!DOCTYPE svg PUBLIC "-//W3C//DTD SVG 1.1//EN"
 "http://www.w3.org/Graphics/SVG/1.1/DTD/svg11.dtd">
<!-- Generated by graphviz version 2.42.2 ()
 -->
<!-- Title: G Pages: 1 -->
<svg width="132pt" height="260pt"
 viewBox="0.00 0.00 132.00 260.00" xmlns="http://www.w3.org/2000/svg" xmlns:xlink="http://www.w3.org/1999/xlink">
<g id="graph0" class="graph" transform="scale(1 1) rotate(0) translate(4 256)">
<title>G</title>
<polygon fill="white" stroke="transparent" points="-4,4 -4,-256 128,-256 128,4 -4,4"/>
<!-- 00 -->
<g id="node1" class="node">
<title>00</title>
<ellipse fill="none" stroke="black" cx="79" cy="-234" rx="27" ry="18"/>
<text text-anchor="middle" x="79" y="-230.3" font-family="Times,serif" font-size="14.00">00</text>
</g>
<!-- 00&#45;&gt;00 -->
<g id="edge1" class="edge">
<title>00&#45;&gt;00</title>
<path fill="none" stroke="black" d="M98.9,-246.43C111.69,-249.68 124,-245.53 124,-234 124,-225.62 117.5,-221.14 109.04,-220.56"/>
<polygon fill="black" stroke="black" points="108.5,-217.1 98.9,-221.57 109.19,-224.07 108.5,-217.1"/>
</g>
<!-- 01 -->
<g id="node2" class="node">
<title>01</title>
<ellipse fill="none" stroke="black" cx="27" cy="-162" rx="27" ry="18"/>
<text text-anchor="middle" x="27" y="-158.3" font-family="Times,serif" font-size="14.00">01</text>
</g>
<!-- 00&#45;&gt;01 -->
<g id="edge2" class="edge">
<title>00&#45;&gt;01</title>
<path fill="none" stroke="black" d="M67.46,-217.46C60.73,-208.4 52.1,-196.79 44.54,-186.61"/>
<polygon fill="black" stroke="black" points="47.28,-184.43 38.51,-178.49 41.66,-188.61 47.28,-184.43"/>
</g>
<!-- 10 -->
<g id="node3" class="node">
<title>10</title>
<ellipse fill="none" stroke="black" cx="27" cy="-18" rx="27" ry="18"/>
<text text-anchor="middle" x="27" y="-14.3" font-family="Times,serif" font-size="14.00">10</text>
</g>
<!-- 01&#45;&gt;10 -->
<g id="edge3" class="edge">
<title>01&#45;&gt;10</title>
<path fill="none" stroke="black" d="M17.75,-144.78C15.54,-134.3 14.47,-120.36 14,-108 13.4,-92.01 13.4,-87.99 14,-72 14.33,-63.31 14.96,-53.84 16.07,-45.34"/>
<polygon fill="black" stroke="black" points="19.56,-45.66 17.75,-35.22 12.66,-44.51 19.56,-45.66"/>
</g>
<!-- 11 -->
<g id="node4" class="node">
<title>11</title>
<ellipse fill="none" stroke="black" cx="59" cy="-90" rx="27" ry="18"/>
<text text-anchor="middle" x="59" y="-86.3" font-family="Times,serif" font-size="14.00">11</text>
</g>
<!-- 01&#45;&gt;11 -->
<g id="edge4" class="edge">
<title>01&#45;&gt;11</title>
<path fill="none" stroke="black" d="M34.58,-144.41C38.37,-136.13 43.03,-125.92 47.27,-116.66"/>
<polygon fill="black" stroke="black" points="50.5,-118.02 51.47,-107.47 44.13,-115.11 50.5,-118.02"/>
</g>
<!-- 10&#45;&gt;00 -->
<g id="edge5" class="edge">
<title>10&#45;&gt;00</title>
<path fill="none" stroke="black" d="M51.21,-26.46C71.75,-34.22 99.92,-48.57 113,-72 137.34,-115.59 112.61,-174.69 94.46,-207.81"/>
<polygon fill="black" stroke="black" points="91.23,-206.4 89.33,-216.82 97.32,-209.86 91.23,-206.4"/>
</g>
<!-- 10&#45;&gt;01 -->
<g id="edge6" class="edge">
<title>10&#45;&gt;01</title>
<path fill="none" stroke="black" d="M33.18,-35.69C33.51,-46.12 32.46,-59.83 32,-72 31.4,-87.99 31.4,-92.01 32,-108 32.32,-116.56 32.94,-125.88 33.16,-134.28"/>
<polygon fill="black" stroke="black" points="29.66,-134.32 33.18,-144.31 36.66,-134.3 29.66,-134.32"/>
</g>
<!-- 11&#45;&gt;10 -->
<g id="edge7" class="edge">
<title>11&#45;&gt;10</title>
<path fill="none" stroke="black" d="M51.42,-72.41C47.63,-64.13 42.97,-53.92 38.73,-44.66"/>
<polygon fill="black" stroke="black" points="41.87,-43.11 34.53,-35.47 35.5,-46.02 41.87,-43.11"/>
</g>
<!-- 11&#45;&gt;11 -->
<g id="edge8" class="edge">
<title>11&#45;&gt;11</title>
<path fill="none" stroke="black" d="M78.9,-102.43C91.69,-105.68 104,-101.53 104,-90 104,-81.62 97.5,-77.14 89.04,-76.56"/>
<polygon fill="black" stroke="black" points="88.5,-73.1 78.9,-77.57 89.19,-80.07 88.5,-73.1"/>
</g>
</g>
</svg>
