<?xml version="1.0" encoding="UTF-8" standalone="no"?>
<!DOCTYPE svg PUBLIC "-//W3C//DTD SVG 1.1//EN"
 "http://www.w3.org/Graphics/SVG/1.1/DTD/svg11.dtd">
<!-- Generated by graphviz version 2.42.2 ()
 -->
<!-- Title: G Pages: 1 -->
<svg width="107pt" height="260pt"
 viewBox="0.00 0.00 107.00 260.00" xmlns="http://www.w3.org/2000/svg" xmlns:xlink="http://www.w3.org/1999/xlink">
<g id="graph0" class="graph" transform="scale(1 1) rotate(0) translate(4 256)">
<title>G</title>
<polygon fill="white" stroke="transparent" points="-4,4 -4,-256 103,-256 103,4 -4,4"/>
<!-- 00 -->
<g id="node1" class="node">
<title>00</title>
<ellipse fill="none" stroke="black" cx="27" cy="-234" rx="27" ry="18"/>
<text text-anchor="middle" x="27" y="-230.3" font-family="Times,serif" font-size="14.00">00</text>
</g>
<!-- 00&#45;&gt;00 -->
<g id="edge1" class="edge">
<title>00&#45;&gt;00</title>
<path fill="none" stroke="black" d="M46.9,-246.43C59.69,-249.68 72,-245.53 72,-234 72,-225.62 65.5,-221.14 57.04,-220.56"/>
<polygon fill="black" stroke="black" points="56.5,-217.1 46.9,-221.57 57.19,-224.07 56.5,-217.1"/>
</g>
<!-- 01 -->
<g id="node2" class="node">
<title>01</title>
<ellipse fill="none" stroke="black" cx="55" cy="-162" rx="27" ry="18"/>
<text text-anchor="middle" x="55" y="-158.3" font-family="Times,serif" font-size="14.00">01</text>
</g>
<!-- 00&#45;&gt;01 -->
<g id="edge2" class="edge">
<title>00&#45;&gt;01</title>
<path fill="none" stroke="black" d="M33.64,-216.41C36.91,-208.22 40.94,-198.14 44.62,-188.95"/>
<polygon fill="black" stroke="black" points="47.95,-190.05 48.41,-179.47 41.45,-187.45 47.95,-190.05"/>
</g>
<!-- 10 -->
<g id="node3" class="node">
<title>10</title>
<ellipse fill="none" stroke="black" cx="27" cy="-90" rx="27" ry="18"/>
<text text-anchor="middle" x="27" y="-86.3" font-family="Times,serif" font-size="14.00">10</text>
</g>
<!-- 01&#45;&gt;10 -->
<g id="edge3" class="edge">
<title>01&#45;&gt;10</title>
<path fill="none" stroke="black" d="M43.07,-145.46C38.89,-137.42 34.58,-127.36 31.24,-118.09"/>
<polygon fill="black" stroke="black" points="34.52,-116.85 28.05,-108.46 27.87,-119.05 34.52,-116.85"/>
</g>
<!-- 11 -->
<g id="node4" class="node">
<title>11</title>
<ellipse fill="none" stroke="black" cx="54" cy="-18" rx="27" ry="18"/>
<text text-anchor="middle" x="54" y="-14.3" font-family="Times,serif" font-size="14.00">11</text>
</g>
<!-- 01&#45;&gt;11 -->
<g id="edge4" class="edge">
<title>01&#45;&gt;11</title>
<path fill="none" stroke="black" d="M58.25,-143.89C60.05,-133.54 62.09,-120.06 63,-108 64.2,-92.04 64.34,-87.94 63,-72 62.28,-63.5 60.93,-54.31 59.49,-46.01"/>
<polygon fill="black" stroke="black" points="62.91,-45.29 57.65,-36.09 56.03,-46.56 62.91,-45.29"/>
</g>
<!-- 10&#45;&gt;00 -->
<g id="edge5" class="edge">
<title>10&#45;&gt;00</title>
<path fill="none" stroke="black" d="M23.75,-108.11C21.95,-118.46 19.91,-131.94 19,-144 17.8,-159.96 17.8,-164.04 19,-180 19.64,-188.48 20.84,-197.66 22.12,-205.96"/>
<polygon fill="black" stroke="black" points="18.68,-206.59 23.75,-215.89 25.58,-205.45 18.68,-206.59"/>
</g>
<!-- 10&#45;&gt;01 -->
<g id="edge6" class="edge">
<title>10&#45;&gt;01</title>
<path fill="none" stroke="black" d="M39,-106.67C43.18,-114.74 47.49,-124.81 50.82,-134.08"/>
<polygon fill="black" stroke="black" points="47.54,-135.3 53.99,-143.7 54.18,-133.1 47.54,-135.3"/>
</g>
<!-- 11&#45;&gt;10 -->
<g id="edge7" class="edge">
<title>11&#45;&gt;10</title>
<path fill="none" stroke="black" d="M47.46,-35.96C44.32,-44.09 40.5,-54.01 37.01,-63.06"/>
<polygon fill="black" stroke="black" points="33.73,-61.82 33.4,-72.41 40.26,-64.34 33.73,-61.82"/>
</g>
<!-- 11&#45;&gt;11 -->
<g id="edge8" class="edge">
<title>11&#45;&gt;11</title>
<path fill="none" stroke="black" d="M73.9,-30.43C86.69,-33.68 99,-29.53 99,-18 99,-9.62 92.5,-5.14 84.04,-4.56"/>
<polygon fill="black" stroke="black" points="83.5,-1.1 73.9,-5.57 84.19,-8.07 83.5,-1.1"/>
</g>
</g>
</svg>
