<?xml version="1.0" encoding="UTF-8" standalone="no"?>
<!DOCTYPE svg PUBLIC "-//W3C//DTD SVG 1.1//EN"
 "http://www.w3.org/Graphics/SVG/1.1/DTD/svg11.dtd">
<!-- Generated by graphviz version 2.42.2 ()
 -->
<!-- Title: G Pages: 1 -->
<svg width="430pt" height="1124pt"
 viewBox="0.00 0.00 430.00 1124.00" xmlns="http://www.w3.org/2000/svg" xmlns:xlink="http://www.w3.org/1999/xlink">
<g id="graph0" class="graph" transform="scale(1 1) rotate(0) translate(4 1120)">
<title>G</title>
<polygon fill="white" stroke="transparent" points="-4,4 -4,-1120 426,-1120 426,4 -4,4"/>
<!-- 0000 -->
<g id="node1" class="node">
<title>0000</title>
<ellipse fill="none" stroke="black" cx="57" cy="-1098" rx="30.59" ry="18"/>
<text text-anchor="middle" x="57" y="-1094.3" font-family="Times,serif" font-size="14.00">0000</text>
</g>
<!-- 0000&#45;&gt;0000 -->
<g id="edge1" class="edge">
<title>0000&#45;&gt;0000</title>
<path fill="none" stroke="black" d="M78.97,-1110.55C92.59,-1113.57 105.55,-1109.39 105.55,-1098 105.55,-1089.55 98.41,-1085.06 89.16,-1084.55"/>
<polygon fill="black" stroke="black" points="88.62,-1081.08 78.97,-1085.45 89.24,-1088.06 88.62,-1081.08"/>
</g>
<!-- 0001 -->
<g id="node2" class="node">
<title>0001</title>
<ellipse fill="none" stroke="black" cx="194" cy="-1026" rx="30.59" ry="18"/>
<text text-anchor="middle" x="194" y="-1022.3" font-family="Times,serif" font-size="14.00">0001</text>
</g>
<!-- 0000&#45;&gt;0001 -->
<g id="edge2" class="edge">
<title>0000&#45;&gt;0001</title>
<path fill="none" stroke="black" d="M79.32,-1085.6C101.91,-1074.06 137.04,-1056.1 162.47,-1043.11"/>
<polygon fill="black" stroke="black" points="164.38,-1046.06 171.69,-1038.4 161.2,-1039.83 164.38,-1046.06"/>
</g>
<!-- 0010 -->
<g id="node3" class="node">
<title>0010</title>
<ellipse fill="none" stroke="black" cx="241" cy="-954" rx="30.59" ry="18"/>
<text text-anchor="middle" x="241" y="-950.3" font-family="Times,serif" font-size="14.00">0010</text>
</g>
<!-- 0001&#45;&gt;0010 -->
<g id="edge3" class="edge">
<title>0001&#45;&gt;0010</title>
<path fill="none" stroke="black" d="M204.67,-1009.12C210.47,-1000.47 217.79,-989.58 224.33,-979.83"/>
<polygon fill="black" stroke="black" points="227.38,-981.56 230.05,-971.31 221.57,-977.66 227.38,-981.56"/>
</g>
<!-- 0011 -->
<g id="node4" class="node">
<title>0011</title>
<ellipse fill="none" stroke="black" cx="138" cy="-738" rx="30.59" ry="18"/>
<text text-anchor="middle" x="138" y="-734.3" font-family="Times,serif" font-size="14.00">0011</text>
</g>
<!-- 0001&#45;&gt;0011 -->
<g id="edge4" class="edge">
<title>0001&#45;&gt;0011</title>
<path fill="none" stroke="black" d="M190.66,-1007.97C181.29,-960.08 154.64,-823.98 143.26,-765.85"/>
<polygon fill="black" stroke="black" points="146.67,-765.09 141.32,-755.94 139.8,-766.43 146.67,-765.09"/>
</g>
<!-- 0100 -->
<g id="node5" class="node">
<title>0100</title>
<ellipse fill="none" stroke="black" cx="270" cy="-882" rx="30.59" ry="18"/>
<text text-anchor="middle" x="270" y="-878.3" font-family="Times,serif" font-size="14.00">0100</text>
</g>
<!-- 0010&#45;&gt;0100 -->
<g id="edge5" class="edge">
<title>0010&#45;&gt;0100</title>
<path fill="none" stroke="black" d="M247.87,-936.41C251.22,-928.34 255.32,-918.43 259.08,-909.35"/>
<polygon fill="black" stroke="black" points="262.38,-910.53 262.98,-899.96 255.91,-907.86 262.38,-910.53"/>
</g>
<!-- 0101 -->
<g id="node6" class="node">
<title>0101</title>
<ellipse fill="none" stroke="black" cx="211" cy="-450" rx="30.59" ry="18"/>
<text text-anchor="middle" x="211" y="-446.3" font-family="Times,serif" font-size="14.00">0101</text>
</g>
<!-- 0010&#45;&gt;0101 -->
<g id="edge6" class="edge">
<title>0010&#45;&gt;0101</title>
<path fill="none" stroke="black" d="M262.14,-940.99C277.21,-931.51 297.02,-917.07 310,-900 335.83,-866.03 346,-853.67 346,-811 346,-811 346,-811 346,-665 346,-583.39 274.9,-507.52 235.9,-472.05"/>
<polygon fill="black" stroke="black" points="237.89,-469.14 228.1,-465.1 233.24,-474.37 237.89,-469.14"/>
</g>
<!-- 0110 -->
<g id="node7" class="node">
<title>0110</title>
<ellipse fill="none" stroke="black" cx="133" cy="-666" rx="30.59" ry="18"/>
<text text-anchor="middle" x="133" y="-662.3" font-family="Times,serif" font-size="14.00">0110</text>
</g>
<!-- 0011&#45;&gt;0110 -->
<g id="edge7" class="edge">
<title>0011&#45;&gt;0110</title>
<path fill="none" stroke="black" d="M136.76,-719.7C136.21,-711.98 135.55,-702.71 134.94,-694.11"/>
<polygon fill="black" stroke="black" points="138.43,-693.83 134.22,-684.1 131.44,-694.33 138.43,-693.83"/>
</g>
<!-- 0111 -->
<g id="node8" class="node">
<title>0111</title>
<ellipse fill="none" stroke="black" cx="153" cy="-306" rx="29.8" ry="18"/>
<text text-anchor="middle" x="153" y="-302.3" font-family="Times,serif" font-size="14.00">0111</text>
</g>
<!-- 0011&#45;&gt;0111 -->
<g id="edge8" class="edge">
<title>0011&#45;&gt;0111</title>
<path fill="none" stroke="black" d="M120.88,-722.71C110.64,-712.99 98.58,-699.18 93,-684 87.48,-668.98 92.47,-663.99 93,-648 97.22,-519.79 66.55,-479.96 112,-360 116.23,-348.84 123.65,-338.11 131.03,-329.26"/>
<polygon fill="black" stroke="black" points="133.71,-331.52 137.7,-321.71 128.46,-326.89 133.71,-331.52"/>
</g>
<!-- 1000 -->
<g id="node9" class="node">
<title>1000</title>
<ellipse fill="none" stroke="black" cx="356" cy="-18" rx="30.59" ry="18"/>
<text text-anchor="middle" x="356" y="-14.3" font-family="Times,serif" font-size="14.00">1000</text>
</g>
<!-- 0100&#45;&gt;1000 -->
<g id="edge9" class="edge">
<title>0100&#45;&gt;1000</title>
<path fill="none" stroke="black" d="M279.14,-864.81C306.19,-815.32 384,-660.96 384,-523 384,-523 384,-523 384,-161 384,-120.23 372.75,-74.09 364.51,-45.77"/>
<polygon fill="black" stroke="black" points="367.76,-44.41 361.53,-35.84 361.05,-46.42 367.76,-44.41"/>
</g>
<!-- 1001 -->
<g id="node10" class="node">
<title>1001</title>
<ellipse fill="none" stroke="black" cx="211" cy="-810" rx="30.59" ry="18"/>
<text text-anchor="middle" x="211" y="-806.3" font-family="Times,serif" font-size="14.00">1001</text>
</g>
<!-- 0100&#45;&gt;1001 -->
<g id="edge10" class="edge">
<title>0100&#45;&gt;1001</title>
<path fill="none" stroke="black" d="M256.91,-865.46C249.19,-856.31 239.28,-844.55 230.64,-834.31"/>
<polygon fill="black" stroke="black" points="233.18,-831.88 224.06,-826.49 227.83,-836.39 233.18,-831.88"/>
</g>
<!-- 1010 -->
<g id="node11" class="node">
<title>1010</title>
<ellipse fill="none" stroke="black" cx="211" cy="-522" rx="30.59" ry="18"/>
<text text-anchor="middle" x="211" y="-518.3" font-family="Times,serif" font-size="14.00">1010</text>
</g>
<!-- 0101&#45;&gt;1010 -->
<g id="edge11" class="edge">
<title>0101&#45;&gt;1010</title>
<path fill="none" stroke="black" d="M216.86,-467.79C217.7,-475.59 217.94,-485.07 217.6,-493.85"/>
<polygon fill="black" stroke="black" points="214.09,-493.83 216.88,-504.05 221.07,-494.33 214.09,-493.83"/>
</g>
<!-- 1011 -->
<g id="node12" class="node">
<title>1011</title>
<ellipse fill="none" stroke="black" cx="152" cy="-378" rx="30.59" ry="18"/>
<text text-anchor="middle" x="152" y="-374.3" font-family="Times,serif" font-size="14.00">1011</text>
</g>
<!-- 0101&#45;&gt;1011 -->
<g id="edge12" class="edge">
<title>0101&#45;&gt;1011</title>
<path fill="none" stroke="black" d="M197.91,-433.46C190.19,-424.31 180.28,-412.55 171.64,-402.31"/>
<polygon fill="black" stroke="black" points="174.18,-399.88 165.06,-394.49 168.83,-404.39 174.18,-399.88"/>
</g>
<!-- 1100 -->
<g id="node13" class="node">
<title>1100</title>
<ellipse fill="none" stroke="black" cx="278" cy="-90" rx="30.59" ry="18"/>
<text text-anchor="middle" x="278" y="-86.3" font-family="Times,serif" font-size="14.00">1100</text>
</g>
<!-- 0110&#45;&gt;1100 -->
<g id="edge13" class="edge">
<title>0110&#45;&gt;1100</title>
<path fill="none" stroke="black" d="M123.54,-648.87C99.51,-606.29 38,-486.78 38,-379 38,-379 38,-379 38,-233 38,-141.13 169.87,-107.44 238.11,-96.15"/>
<polygon fill="black" stroke="black" points="238.75,-99.59 248.09,-94.58 237.67,-92.68 238.75,-99.59"/>
</g>
<!-- 1101 -->
<g id="node14" class="node">
<title>1101</title>
<ellipse fill="none" stroke="black" cx="192" cy="-594" rx="30.59" ry="18"/>
<text text-anchor="middle" x="192" y="-590.3" font-family="Times,serif" font-size="14.00">1101</text>
</g>
<!-- 0110&#45;&gt;1101 -->
<g id="edge14" class="edge">
<title>0110&#45;&gt;1101</title>
<path fill="none" stroke="black" d="M146.09,-649.46C153.81,-640.31 163.72,-628.55 172.36,-618.31"/>
<polygon fill="black" stroke="black" points="175.17,-620.39 178.94,-610.49 169.82,-615.88 175.17,-620.39"/>
</g>
<!-- 1110 -->
<g id="node15" class="node">
<title>1110</title>
<ellipse fill="none" stroke="black" cx="251" cy="-162" rx="29.8" ry="18"/>
<text text-anchor="middle" x="251" y="-158.3" font-family="Times,serif" font-size="14.00">1110</text>
</g>
<!-- 0111&#45;&gt;1110 -->
<g id="edge15" class="edge">
<title>0111&#45;&gt;1110</title>
<path fill="none" stroke="black" d="M170.93,-291.44C183.13,-281.53 198.98,-267.21 210,-252 223.97,-232.7 234.93,-207.88 241.99,-189.35"/>
<polygon fill="black" stroke="black" points="245.34,-190.38 245.5,-179.78 238.77,-187.97 245.34,-190.38"/>
</g>
<!-- 1111 -->
<g id="node16" class="node">
<title>1111</title>
<ellipse fill="none" stroke="black" cx="154" cy="-234" rx="29.5" ry="18"/>
<text text-anchor="middle" x="154" y="-230.3" font-family="Times,serif" font-size="14.00">1111</text>
</g>
<!-- 0111&#45;&gt;1111 -->
<g id="edge16" class="edge">
<title>0111&#45;&gt;1111</title>
<path fill="none" stroke="black" d="M153.25,-287.7C153.36,-279.98 153.49,-270.71 153.61,-262.11"/>
<polygon fill="black" stroke="black" points="157.11,-262.15 153.76,-252.1 150.11,-262.05 157.11,-262.15"/>
</g>
<!-- 1000&#45;&gt;0000 -->
<g id="edge17" class="edge">
<title>1000&#45;&gt;0000</title>
<path fill="none" stroke="black" d="M327.17,-24.06C242.42,-39.73 0,-90.72 0,-161 0,-955 0,-955 0,-955 0,-998.68 23.51,-1044.82 40.33,-1072.25"/>
<polygon fill="black" stroke="black" points="37.44,-1074.22 45.74,-1080.8 43.36,-1070.48 37.44,-1074.22"/>
</g>
<!-- 1000&#45;&gt;0001 -->
<g id="edge18" class="edge">
<title>1000&#45;&gt;0001</title>
<path fill="none" stroke="black" d="M368.73,-34.51C387.9,-59.51 422,-110.98 422,-161 422,-883 422,-883 422,-883 422,-970.87 298.49,-1006.31 233.28,-1018.91"/>
<polygon fill="black" stroke="black" points="232.54,-1015.48 223.34,-1020.74 233.81,-1022.37 232.54,-1015.48"/>
</g>
<!-- 1001&#45;&gt;0010 -->
<g id="edge19" class="edge">
<title>1001&#45;&gt;0010</title>
<path fill="none" stroke="black" d="M214.63,-828.19C219.77,-852.53 229.23,-897.28 235.31,-926.06"/>
<polygon fill="black" stroke="black" points="231.89,-926.81 237.38,-935.87 238.74,-925.36 231.89,-926.81"/>
</g>
<!-- 1001&#45;&gt;0011 -->
<g id="edge20" class="edge">
<title>1001&#45;&gt;0011</title>
<path fill="none" stroke="black" d="M195.52,-794.15C185.45,-784.5 172.15,-771.75 160.88,-760.94"/>
<polygon fill="black" stroke="black" points="163.1,-758.22 153.46,-753.82 158.25,-763.27 163.1,-758.22"/>
</g>
<!-- 1010&#45;&gt;0100 -->
<g id="edge21" class="edge">
<title>1010&#45;&gt;0100</title>
<path fill="none" stroke="black" d="M222.38,-538.72C239.52,-564.01 270,-615.88 270,-665 270,-739 270,-739 270,-739 270,-779 270,-825.35 270,-853.92"/>
<polygon fill="black" stroke="black" points="266.5,-853.95 270,-863.95 273.5,-853.95 266.5,-853.95"/>
</g>
<!-- 1010&#45;&gt;0101 -->
<g id="edge22" class="edge">
<title>1010&#45;&gt;0101</title>
<path fill="none" stroke="black" d="M205.12,-504.05C204.29,-496.23 204.05,-486.75 204.41,-477.98"/>
<polygon fill="black" stroke="black" points="207.92,-478.01 205.14,-467.79 200.93,-477.51 207.92,-478.01"/>
</g>
<!-- 1011&#45;&gt;0110 -->
<g id="edge23" class="edge">
<title>1011&#45;&gt;0110</title>
<path fill="none" stroke="black" d="M150.85,-396.31C147.66,-444.31 138.68,-579.44 134.81,-637.7"/>
<polygon fill="black" stroke="black" points="131.3,-637.76 134.13,-647.97 138.29,-638.22 131.3,-637.76"/>
</g>
<!-- 1011&#45;&gt;0111 -->
<g id="edge24" class="edge">
<title>1011&#45;&gt;0111</title>
<path fill="none" stroke="black" d="M152.25,-359.7C152.36,-351.98 152.49,-342.71 152.61,-334.11"/>
<polygon fill="black" stroke="black" points="156.11,-334.15 152.76,-324.1 149.11,-334.05 156.11,-334.15"/>
</g>
<!-- 1100&#45;&gt;1000 -->
<g id="edge25" class="edge">
<title>1100&#45;&gt;1000</title>
<path fill="none" stroke="black" d="M294.16,-74.5C305.14,-64.64 319.85,-51.44 332.17,-40.38"/>
<polygon fill="black" stroke="black" points="334.75,-42.77 339.86,-33.49 330.08,-37.56 334.75,-42.77"/>
</g>
<!-- 1100&#45;&gt;1001 -->
<g id="edge26" class="edge">
<title>1100&#45;&gt;1001</title>
<path fill="none" stroke="black" d="M291.11,-106.44C310.87,-131.35 346,-182.71 346,-233 346,-451 346,-451 346,-451 346,-520.01 257.07,-712.84 223.56,-783.03"/>
<polygon fill="black" stroke="black" points="220.21,-781.93 219.04,-792.46 226.52,-784.96 220.21,-781.93"/>
</g>
<!-- 1101&#45;&gt;1010 -->
<g id="edge27" class="edge">
<title>1101&#45;&gt;1010</title>
<path fill="none" stroke="black" d="M196.6,-576.05C198.71,-568.26 201.28,-558.82 203.65,-550.08"/>
<polygon fill="black" stroke="black" points="207.07,-550.84 206.31,-540.28 200.31,-549.01 207.07,-550.84"/>
</g>
<!-- 1101&#45;&gt;1011 -->
<g id="edge28" class="edge">
<title>1101&#45;&gt;1011</title>
<path fill="none" stroke="black" d="M184.04,-576.19C179.52,-565.95 174.15,-552.47 171,-540 159.36,-493.91 154.81,-438.55 153.06,-406.22"/>
<polygon fill="black" stroke="black" points="156.55,-406 152.57,-396.18 149.56,-406.34 156.55,-406"/>
</g>
<!-- 1110&#45;&gt;1100 -->
<g id="edge29" class="edge">
<title>1110&#45;&gt;1100</title>
<path fill="none" stroke="black" d="M257.4,-144.41C260.51,-136.34 264.33,-126.43 267.83,-117.35"/>
<polygon fill="black" stroke="black" points="271.13,-118.55 271.46,-107.96 264.6,-116.03 271.13,-118.55"/>
</g>
<!-- 1110&#45;&gt;1101 -->
<g id="edge30" class="edge">
<title>1110&#45;&gt;1101</title>
<path fill="none" stroke="black" d="M254.75,-179.95C260.29,-206.48 270,-259.48 270,-305 270,-451 270,-451 270,-451 270,-491.45 271.26,-504.99 251,-540 243.34,-553.23 231.23,-564.96 219.96,-573.99"/>
<polygon fill="black" stroke="black" points="217.81,-571.23 211.98,-580.08 222.06,-576.8 217.81,-571.23"/>
</g>
<!-- 1111&#45;&gt;1110 -->
<g id="edge31" class="edge">
<title>1111&#45;&gt;1110</title>
<path fill="none" stroke="black" d="M172.24,-219.83C186.92,-209.24 207.75,-194.21 224.3,-182.27"/>
<polygon fill="black" stroke="black" points="226.45,-185.04 232.51,-176.35 222.35,-179.36 226.45,-185.04"/>
</g>
<!-- 1111&#45;&gt;1111 -->
<g id="edge32" class="edge">
<title>1111&#45;&gt;1111</title>
<path fill="none" stroke="black" d="M175.38,-246.55C188.63,-249.57 201.25,-245.39 201.25,-234 201.25,-225.64 194.44,-221.16 185.58,-220.57"/>
<polygon fill="black" stroke="black" points="185.04,-217.1 175.38,-221.45 185.64,-224.07 185.04,-217.1"/>
</g>
</g>
</svg>
