<?xml version="1.0" encoding="UTF-8" standalone="no"?>
<!DOCTYPE svg PUBLIC "-//W3C//DTD SVG 1.1//EN"
 "http://www.w3.org/Graphics/SVG/1.1/DTD/svg11.dtd">
<!-- Generated by graphviz version 2.42.2 ()
 -->
<!-- Title: G Pages: 1 -->
<svg width="243pt" height="332pt"
 viewBox="0.00 0.00 243.00 332.00" xmlns="http://www.w3.org/2000/svg" xmlns:xlink="http://www.w3.org/1999/xlink">
<g id="graph0" class="graph" transform="scale(1 1) rotate(0) translate(4 328)">
<title>G</title>
<polygon fill="white" stroke="transparent" points="-4,4 -4,-328 239,-328 239,4 -4,4"/>
<!-- 000 -->
<g id="node1" class="node">
<title>000</title>
<ellipse fill="none" stroke="black" cx="190" cy="-306" rx="27" ry="18"/>
<text text-anchor="middle" x="190" y="-302.3" font-family="Times,serif" font-size="14.00">000</text>
</g>
<!-- 000&#45;&gt;000 -->
<g id="edge1" class="edge">
<title>000&#45;&gt;000</title>
<path fill="none" stroke="black" d="M209.9,-318.43C222.69,-321.68 235,-317.53 235,-306 235,-297.62 228.5,-293.14 220.04,-292.56"/>
<polygon fill="black" stroke="black" points="219.5,-289.1 209.9,-293.57 220.19,-296.07 219.5,-289.1"/>
</g>
<!-- 001 -->
<g id="node2" class="node">
<title>001</title>
<ellipse fill="none" stroke="black" cx="112" cy="-234" rx="27" ry="18"/>
<text text-anchor="middle" x="112" y="-230.3" font-family="Times,serif" font-size="14.00">001</text>
</g>
<!-- 000&#45;&gt;001 -->
<g id="edge2" class="edge">
<title>000&#45;&gt;001</title>
<path fill="none" stroke="black" d="M174.59,-291.17C163.27,-281.01 147.69,-267.03 134.91,-255.56"/>
<polygon fill="black" stroke="black" points="137.16,-252.88 127.38,-248.8 132.48,-258.09 137.16,-252.88"/>
</g>
<!-- 010 -->
<g id="node3" class="node">
<title>010</title>
<ellipse fill="none" stroke="black" cx="27" cy="-162" rx="27" ry="18"/>
<text text-anchor="middle" x="27" y="-158.3" font-family="Times,serif" font-size="14.00">010</text>
</g>
<!-- 001&#45;&gt;010 -->
<g id="edge3" class="edge">
<title>001&#45;&gt;010</title>
<path fill="none" stroke="black" d="M95.61,-219.5C83.03,-209.14 65.46,-194.67 51.25,-182.97"/>
<polygon fill="black" stroke="black" points="53.28,-180.11 43.34,-176.46 48.83,-185.51 53.28,-180.11"/>
</g>
<!-- 011 -->
<g id="node4" class="node">
<title>011</title>
<ellipse fill="none" stroke="black" cx="184" cy="-234" rx="27" ry="18"/>
<text text-anchor="middle" x="184" y="-230.3" font-family="Times,serif" font-size="14.00">011</text>
</g>
<!-- 001&#45;&gt;011 -->
<g id="edge4" class="edge">
<title>001&#45;&gt;011</title>
<path fill="none" stroke="black" d="M139,-234C141.61,-234 144.23,-234 146.84,-234"/>
<polygon fill="black" stroke="black" points="146.93,-237.5 156.93,-234 146.93,-230.5 146.93,-237.5"/>
</g>
<!-- 100 -->
<g id="node5" class="node">
<title>100</title>
<ellipse fill="none" stroke="black" cx="165" cy="-90" rx="27" ry="18"/>
<text text-anchor="middle" x="165" y="-86.3" font-family="Times,serif" font-size="14.00">100</text>
</g>
<!-- 010&#45;&gt;100 -->
<g id="edge5" class="edge">
<title>010&#45;&gt;100</title>
<path fill="none" stroke="black" d="M47.96,-150.37C71.06,-138.65 108.42,-119.7 134.71,-106.37"/>
<polygon fill="black" stroke="black" points="136.51,-109.38 143.84,-101.73 133.34,-103.13 136.51,-109.38"/>
</g>
<!-- 101 -->
<g id="node6" class="node">
<title>101</title>
<ellipse fill="none" stroke="black" cx="175" cy="-162" rx="27" ry="18"/>
<text text-anchor="middle" x="175" y="-158.3" font-family="Times,serif" font-size="14.00">101</text>
</g>
<!-- 010&#45;&gt;101 -->
<g id="edge6" class="edge">
<title>010&#45;&gt;101</title>
<path fill="none" stroke="black" d="M51.57,-154.52C81.17,-147.31 110.77,-146.58 140.37,-152.32"/>
<polygon fill="black" stroke="black" points="139.89,-155.8 150.41,-154.52 141.39,-148.96 139.89,-155.8"/>
</g>
<!-- 110 -->
<g id="node7" class="node">
<title>110</title>
<ellipse fill="none" stroke="black" cx="93" cy="-90" rx="27" ry="18"/>
<text text-anchor="middle" x="93" y="-86.3" font-family="Times,serif" font-size="14.00">110</text>
</g>
<!-- 011&#45;&gt;110 -->
<g id="edge7" class="edge">
<title>011&#45;&gt;110</title>
<path fill="none" stroke="black" d="M170.04,-218.42C160.63,-208.16 148.27,-193.84 139,-180 125.37,-159.67 112.83,-134.8 104.29,-116.52"/>
<polygon fill="black" stroke="black" points="107.45,-115 100.1,-107.37 101.09,-117.92 107.45,-115"/>
</g>
<!-- 111 -->
<g id="node8" class="node">
<title>111</title>
<ellipse fill="none" stroke="black" cx="156" cy="-18" rx="27" ry="18"/>
<text text-anchor="middle" x="156" y="-14.3" font-family="Times,serif" font-size="14.00">111</text>
</g>
<!-- 011&#45;&gt;111 -->
<g id="edge8" class="edge">
<title>011&#45;&gt;111</title>
<path fill="none" stroke="black" d="M194.63,-217.07C200.74,-206.93 207.82,-193.25 211,-180 222.25,-133.13 220.7,-116 201,-72 195.81,-60.41 187.29,-49.4 179.05,-40.44"/>
<polygon fill="black" stroke="black" points="181.44,-37.89 171.97,-33.14 176.42,-42.76 181.44,-37.89"/>
</g>
<!-- 100&#45;&gt;000 -->
<g id="edge9" class="edge">
<title>100&#45;&gt;000</title>
<path fill="none" stroke="black" d="M180.94,-104.61C191.32,-114.44 204.15,-128.64 211,-144 230.62,-187.99 232.27,-205.42 220,-252 217.32,-262.17 212.2,-272.44 206.93,-281.19"/>
<polygon fill="black" stroke="black" points="203.93,-279.39 201.49,-289.7 209.82,-283.16 203.93,-279.39"/>
</g>
<!-- 100&#45;&gt;001 -->
<g id="edge10" class="edge">
<title>100&#45;&gt;001</title>
<path fill="none" stroke="black" d="M156.1,-107.4C150.72,-117.72 143.96,-131.41 139,-144 130.94,-164.47 123.81,-188.36 118.9,-206.24"/>
<polygon fill="black" stroke="black" points="115.5,-205.43 116.28,-215.99 122.26,-207.24 115.5,-205.43"/>
</g>
<!-- 101&#45;&gt;010 -->
<g id="edge11" class="edge">
<title>101&#45;&gt;010</title>
<path fill="none" stroke="black" d="M150.41,-169.48C120.81,-176.69 91.21,-177.42 61.61,-171.67"/>
<polygon fill="black" stroke="black" points="62.09,-168.2 51.57,-169.48 60.59,-175.03 62.09,-168.2"/>
</g>
<!-- 101&#45;&gt;011 -->
<g id="edge12" class="edge">
<title>101&#45;&gt;011</title>
<path fill="none" stroke="black" d="M177.22,-180.28C178.22,-188.03 179.42,-197.36 180.53,-206.01"/>
<polygon fill="black" stroke="black" points="177.07,-206.58 181.82,-216.05 184.02,-205.69 177.07,-206.58"/>
</g>
<!-- 110&#45;&gt;100 -->
<g id="edge13" class="edge">
<title>110&#45;&gt;100</title>
<path fill="none" stroke="black" d="M120,-90C122.61,-90 125.23,-90 127.84,-90"/>
<polygon fill="black" stroke="black" points="127.93,-93.5 137.93,-90 127.93,-86.5 127.93,-93.5"/>
</g>
<!-- 110&#45;&gt;101 -->
<g id="edge14" class="edge">
<title>110&#45;&gt;101</title>
<path fill="none" stroke="black" d="M108.89,-104.56C120.79,-114.72 137.29,-128.8 150.82,-140.36"/>
<polygon fill="black" stroke="black" points="148.92,-143.34 158.8,-147.17 153.47,-138.02 148.92,-143.34"/>
</g>
<!-- 111&#45;&gt;110 -->
<g id="edge15" class="edge">
<title>111&#45;&gt;110</title>
<path fill="none" stroke="black" d="M142.66,-33.82C134.14,-43.29 122.94,-55.73 113.33,-66.41"/>
<polygon fill="black" stroke="black" points="110.45,-64.38 106.36,-74.15 115.65,-69.06 110.45,-64.38"/>
</g>
<!-- 111&#45;&gt;111 -->
<g id="edge16" class="edge">
<title>111&#45;&gt;111</title>
<path fill="none" stroke="black" d="M175.9,-30.43C188.69,-33.68 201,-29.53 201,-18 201,-9.62 194.5,-5.14 186.04,-4.56"/>
<polygon fill="black" stroke="black" points="185.5,-1.1 175.9,-5.57 186.19,-8.07 185.5,-1.1"/>
</g>
</g>
</svg>
