<?xml version="1.0" encoding="UTF-8" standalone="no"?>
<!DOCTYPE svg PUBLIC "-//W3C//DTD SVG 1.1//EN"
 "http://www.w3.org/Graphics/SVG/1.1/DTD/svg11.dtd">
<!-- Generated by graphviz version 2.42.2 ()
 -->
<!-- Title: G Pages: 1 -->
<svg width="250pt" height="548pt"
 viewBox="0.00 0.00 250.00 548.00" xmlns="http://www.w3.org/2000/svg" xmlns:xlink="http://www.w3.org/1999/xlink">
<g id="graph0" class="graph" transform="scale(1 1) rotate(0) translate(4 544)">
<title>G</title>
<polygon fill="white" stroke="transparent" points="-4,4 -4,-544 246,-544 246,4 -4,4"/>
<!-- 000 -->
<g id="node1" class="node">
<title>000</title>
<ellipse fill="none" stroke="black" cx="168" cy="-522" rx="27" ry="18"/>
<text text-anchor="middle" x="168" y="-518.3" font-family="Times,serif" font-size="14.00">000</text>
</g>
<!-- 000&#45;&gt;000 -->
<g id="edge1" class="edge">
<title>000&#45;&gt;000</title>
<path fill="none" stroke="black" d="M187.9,-534.43C200.69,-537.68 213,-533.53 213,-522 213,-513.62 206.5,-509.14 198.04,-508.56"/>
<polygon fill="black" stroke="black" points="197.5,-505.1 187.9,-509.57 198.19,-512.07 197.5,-505.1"/>
</g>
<!-- 001 -->
<g id="node2" class="node">
<title>001</title>
<ellipse fill="none" stroke="black" cx="122" cy="-450" rx="27" ry="18"/>
<text text-anchor="middle" x="122" y="-446.3" font-family="Times,serif" font-size="14.00">001</text>
</g>
<!-- 000&#45;&gt;001 -->
<g id="edge2" class="edge">
<title>000&#45;&gt;001</title>
<path fill="none" stroke="black" d="M157.56,-505.12C151.8,-496.34 144.52,-485.26 138.04,-475.42"/>
<polygon fill="black" stroke="black" points="140.81,-473.26 132.4,-466.82 134.96,-477.1 140.81,-473.26"/>
</g>
<!-- 010 -->
<g id="node3" class="node">
<title>010</title>
<ellipse fill="none" stroke="black" cx="149" cy="-378" rx="27" ry="18"/>
<text text-anchor="middle" x="149" y="-374.3" font-family="Times,serif" font-size="14.00">010</text>
</g>
<!-- 001&#45;&gt;010 -->
<g id="edge3" class="edge">
<title>001&#45;&gt;010</title>
<path fill="none" stroke="black" d="M128.4,-432.41C131.51,-424.34 135.33,-414.43 138.83,-405.35"/>
<polygon fill="black" stroke="black" points="142.13,-406.55 142.46,-395.96 135.6,-404.03 142.13,-406.55"/>
</g>
<!-- 011 -->
<g id="node4" class="node">
<title>011</title>
<ellipse fill="none" stroke="black" cx="102" cy="-234" rx="27" ry="18"/>
<text text-anchor="middle" x="102" y="-230.3" font-family="Times,serif" font-size="14.00">011</text>
</g>
<!-- 001&#45;&gt;011 -->
<g id="edge4" class="edge">
<title>001&#45;&gt;011</title>
<path fill="none" stroke="black" d="M118.65,-431.88C116.73,-421.53 114.43,-408.05 113,-396 107.47,-349.46 104.47,-295 103.06,-262.84"/>
<polygon fill="black" stroke="black" points="106.54,-262.29 102.62,-252.45 99.54,-262.58 106.54,-262.29"/>
</g>
<!-- 100 -->
<g id="node5" class="node">
<title>100</title>
<ellipse fill="none" stroke="black" cx="176" cy="-18" rx="27" ry="18"/>
<text text-anchor="middle" x="176" y="-14.3" font-family="Times,serif" font-size="14.00">100</text>
</g>
<!-- 010&#45;&gt;100 -->
<g id="edge5" class="edge">
<title>010&#45;&gt;100</title>
<path fill="none" stroke="black" d="M161.75,-361.7C169.56,-351.59 179.15,-337.71 185,-324 200.88,-286.8 204,-275.45 204,-235 204,-235 204,-235 204,-161 204,-120.23 192.75,-74.09 184.51,-45.77"/>
<polygon fill="black" stroke="black" points="187.76,-44.41 181.53,-35.84 181.05,-46.42 187.76,-44.41"/>
</g>
<!-- 101 -->
<g id="node6" class="node">
<title>101</title>
<ellipse fill="none" stroke="black" cx="149" cy="-306" rx="27" ry="18"/>
<text text-anchor="middle" x="149" y="-302.3" font-family="Times,serif" font-size="14.00">101</text>
</g>
<!-- 010&#45;&gt;101 -->
<g id="edge6" class="edge">
<title>010&#45;&gt;101</title>
<path fill="none" stroke="black" d="M143.16,-360.41C142.3,-352.51 142.05,-342.85 142.41,-333.94"/>
<polygon fill="black" stroke="black" points="145.9,-334.18 143.12,-323.96 138.92,-333.68 145.9,-334.18"/>
</g>
<!-- 110 -->
<g id="node7" class="node">
<title>110</title>
<ellipse fill="none" stroke="black" cx="138" cy="-90" rx="27" ry="18"/>
<text text-anchor="middle" x="138" y="-86.3" font-family="Times,serif" font-size="14.00">110</text>
</g>
<!-- 011&#45;&gt;110 -->
<g id="edge7" class="edge">
<title>011&#45;&gt;110</title>
<path fill="none" stroke="black" d="M106.27,-216.15C112.44,-191.81 123.91,-146.57 131.24,-117.67"/>
<polygon fill="black" stroke="black" points="134.67,-118.38 133.73,-107.82 127.88,-116.66 134.67,-118.38"/>
</g>
<!-- 111 -->
<g id="node8" class="node">
<title>111</title>
<ellipse fill="none" stroke="black" cx="55" cy="-162" rx="27" ry="18"/>
<text text-anchor="middle" x="55" y="-158.3" font-family="Times,serif" font-size="14.00">111</text>
</g>
<!-- 011&#45;&gt;111 -->
<g id="edge8" class="edge">
<title>011&#45;&gt;111</title>
<path fill="none" stroke="black" d="M91.33,-217.12C85.45,-208.34 78.01,-197.26 71.39,-187.42"/>
<polygon fill="black" stroke="black" points="74.1,-185.17 65.62,-178.82 68.29,-189.07 74.1,-185.17"/>
</g>
<!-- 100&#45;&gt;000 -->
<g id="edge9" class="edge">
<title>100&#45;&gt;000</title>
<path fill="none" stroke="black" d="M188.41,-34.1C207.53,-58.95 242,-110.71 242,-161 242,-379 242,-379 242,-379 242,-425.41 210.53,-471.67 188.64,-498.25"/>
<polygon fill="black" stroke="black" points="185.73,-496.27 181.92,-506.16 191.06,-500.8 185.73,-496.27"/>
</g>
<!-- 100&#45;&gt;001 -->
<g id="edge10" class="edge">
<title>100&#45;&gt;001</title>
<path fill="none" stroke="black" d="M151.53,-26.06C103.17,-41.69 0,-84.05 0,-161 0,-307 0,-307 0,-307 0,-363.93 57.11,-409.43 93.18,-432.49"/>
<polygon fill="black" stroke="black" points="91.51,-435.57 101.85,-437.87 95.2,-429.62 91.51,-435.57"/>
</g>
<!-- 101&#45;&gt;010 -->
<g id="edge11" class="edge">
<title>101&#45;&gt;010</title>
<path fill="none" stroke="black" d="M154.88,-323.96C155.71,-331.83 155.95,-341.37 155.58,-350.19"/>
<polygon fill="black" stroke="black" points="152.07,-350.18 154.84,-360.41 159.06,-350.69 152.07,-350.18"/>
</g>
<!-- 101&#45;&gt;011 -->
<g id="edge12" class="edge">
<title>101&#45;&gt;011</title>
<path fill="none" stroke="black" d="M138.33,-289.12C132.45,-280.34 125.01,-269.26 118.39,-259.42"/>
<polygon fill="black" stroke="black" points="121.1,-257.17 112.62,-250.82 115.29,-261.07 121.1,-257.17"/>
</g>
<!-- 110&#45;&gt;100 -->
<g id="edge13" class="edge">
<title>110&#45;&gt;100</title>
<path fill="none" stroke="black" d="M146.81,-72.76C151.42,-64.28 157.16,-53.71 162.32,-44.2"/>
<polygon fill="black" stroke="black" points="165.54,-45.61 167.23,-35.15 159.39,-42.27 165.54,-45.61"/>
</g>
<!-- 110&#45;&gt;101 -->
<g id="edge14" class="edge">
<title>110&#45;&gt;101</title>
<path fill="none" stroke="black" d="M138.89,-108.23C140.79,-145.32 145.3,-232.98 147.6,-277.71"/>
<polygon fill="black" stroke="black" points="144.11,-278.04 148.12,-287.85 151.1,-277.68 144.11,-278.04"/>
</g>
<!-- 111&#45;&gt;110 -->
<g id="edge15" class="edge">
<title>111&#45;&gt;110</title>
<path fill="none" stroke="black" d="M71.4,-147.17C83.64,-136.85 100.55,-122.58 114.27,-111.01"/>
<polygon fill="black" stroke="black" points="116.53,-113.69 121.92,-104.56 112.02,-108.33 116.53,-113.69"/>
</g>
<!-- 111&#45;&gt;111 -->
<g id="edge16" class="edge">
<title>111&#45;&gt;111</title>
<path fill="none" stroke="black" d="M74.9,-174.43C87.69,-177.68 100,-173.53 100,-162 100,-153.62 93.5,-149.14 85.04,-148.56"/>
<polygon fill="black" stroke="black" points="84.5,-145.1 74.9,-149.57 85.19,-152.07 84.5,-145.1"/>
</g>
</g>
</svg>
